{"title":"Bering Sea Gold S05E02 Girl Drama HDTV x264-W4F","uid":12402188,"size":339086113,"categoryP":"video","categoryS":"tv_shows","magnet":"?xt=urn:btih:d8c886cb5feae14ae555250fa1c88e40110087dc&amp;dn=Bering+Sea+Gold+S05E02+Girl+Drama+HDTV+x264-W4F&amp;tr=udp%3A%2F%2Ftracker.openbittorrent.com%3A80&amp;tr=udp%3A%2F%2Fopen.demonii.com%3A1337&amp;tr=udp%3A%2F%2Ftracker.coppersurfer.tk%3A6969&amp;tr=udp%3A%2F%2Fexodus.desync.com%3A6969","seeders":1,"leechers":0,"uploader":"toots2boots","files":1,"time":1442043648,"description":"Bering Sea Gold S05E02 Girl Drama\nThe subject of the show is to follow boats equipped with various setups to achieve gold mining in a summertime, cold northern latitude, shallow water, ocean environment. The fleet each typically consists of a sluicing apparatus, a means of paydirt collection (dredge), and a cold-water-diving life support system. Conflict issues include choppy seas, poor underwater visibility, inconsistent fuel delivery, personnel issues, mining location rights, sufficient paydirt discovery, diver safety, and ocean-damaging equipment failures. Each season of episodes follow the current fleet of dredges.\n\nGeneral\nComplete name                            : M:PostsBering Sea Gold S05E02 Girl Drama HDTV x264-W4Fbering.sea.gold.s05e02.girl.drama.hdtv.x264-w4f.mp4\nFormat                                   : MPEG-4\nFormat profile                           : Base Media\nCodec ID                                 : isom\nFile size                                : 323 MiB\nDuration                                 : 42mn 33s\nOverall bit rate mode                    : Variable\nOverall bit rate                         : 1 062 Kbps\nEncoded date                             : UTC 2015-09-12 02:48:25\nTagged date                              : UTC 2015-09-12 02:48:25\n\nVideo\nID                                       : 1\nFormat                                   : AVC\nFormat/Info                              : Advanced Video Codec\nFormat profile                           : &lt;a class=&quot;__cf_email__&quot; href=&quot;/cdn-cgi/l/email-protection&quot; data-cfemail=&quot;2860414f4068641b0619&quot;&gt;[email&amp;#160;protected]&lt;/a&gt;&lt;script data-cfhash='f9e31' type=&quot;text/javascript&quot;&gt;\n/* &lt;![CDATA[ */!function(){try{var t=&quot;currentScript&quot;in document?document.currentScript:function(){for(var t=document.getElementsByTagName(&quot;script&quot;),e=t.length;e--;)if(t[e].getAttribute(&quot;data-cfhash&quot;))return t[e]}();if(t&amp;&amp;t.previousSibling){var e,r,n,i,c=t.previousSibling,a=c.getAttribute(&quot;data-cfemail&quot;);if(a){for(e=&quot;&quot;,r=parseInt(a.substr(0,2),16),n=2;a.length-n;n+=2)i=parseInt(a.substr(n,2),16)^r,e+=String.fromCharCode(i);e=document.createTextNode(e),c.parentNode.replaceChild(e,c)}t.parentNode.removeChild(t);}}catch(u){}}()/* ]]&gt; */&lt;/script&gt;\nFormat settings, CABAC                   : Yes\nFormat settings, ReFrames                : 5 frames\nCodec ID                                 : avc1\nCodec ID/Info                            : Advanced Video Coding\nDuration                                 : 42mn 33s\nBit rate                                 : 926 Kbps\nMaximum bit rate                         : 4 305 Kbps\nWidth                                    : 720 pixels\nHeight                                   : 404 pixels\nDisplay aspect ratio                     : 16:9\nFrame rate mode                          : Constant\nFrame rate                               : 29.970 fps\nColor space                              : YUV\nChroma subsampling                       : 4:2:0\nBit depth                                : 8 bits\nScan type                                : Progressive\nBits/(Pixel*Frame)                       : 0.106\nStream size                              : 282 MiB (87%)\nWriting library                          : x264 core 148 r2597 e86f3a1\nEncoding settings                        : cabac=1 / ref=5 / deblock=1:0:0 / analyse=0x3:0x113 / me=umh / subme=8 / psy=1 / psy_rd=1.00:0.00 / mixed_ref=1 / me_range=16 / chroma_me=1 / trellis=1 / 8x8dct=1 / cqm=0 / deadzone=21,11 / fast_pskip=1 / chroma_qp_offset=-2 / threads=12 / lookahead_threads=2 / sliced_threads=0 / nr=0 / decimate=1 / interlaced=0 / bluray_compat=0 / constrained_intra=0 / bframes=3 / b_pyramid=2 / b_adapt=2 / b_bias=0 / direct=3 / weightb=1 / open_gop=0 / weightp=2 / keyint=250 / keyint_min=25 / scenecut=40 / intra_refresh=0 / rc_lookahead=50 / rc=crf / mbtree=1 / crf=21.0 / qcomp=0.60 / qpmin=0 / qpmax=69 / qpstep=4 / ip_ratio=1.40 / aq=1:1.00\nEncoded date                             : UTC 2015-09-12 02:48:25\nTagged date                              : UTC 2015-09-12 02:49:01\nMatrix coefficients                      : BT.709-5, BT.1361, IEC 61966-2-4 709, SMPTE RP177\n\nAudio\nID                                       : 2\nFormat                                   : AAC\nFormat/Info                              : Advanced Audio Codec\nFormat profile                           : LC\nCodec ID                                 : 40\nDuration                                 : 42mn 33s\nBit rate mode                            : Variable\nBit rate                                 : 132 Kbps\nMaximum bit rate                         : 163 Kbps\nChannel(s)                               : 2 channels\nChannel positions                        : Front: L R\nSampling rate                            : 48.0 KHz\nCompression mode                         : Lossy\nStream size                              : 39.9 MiB (12%)\nLanguage                                 : English\nEncoded date                             : UTC 2015-09-12 02:49:00\nTagged date                              : UTC 2015-09-12 02:49:01\n\nText\nID                                       : 3\nFormat                                   : Timed text\nCodec ID                                 : tx3g\nDuration                                 : 42mn 26s\nBit rate mode                            : Variable\nBit rate                                 : 134 bps\nStream size                              : 41.7 KiB (0%)\nLanguage                                 : English\nEncoded date                             : UTC 2015-09-12 02:49:01\nTagged date                              : UTC 2015-09-12 02:49:01","torrent":{"xt":"urn:btih:d8c886cb5feae14ae555250fa1c88e40110087dc","amp;dn":"Bering+Sea+Gold+S05E02+Girl+Drama+HDTV+x264-W4F","amp;tr":["udp%3A%2F%2Ftracker.openbittorrent.com%3A80","udp%3A%2F%2Fopen.demonii.com%3A1337","udp%3A%2F%2Ftracker.coppersurfer.tk%3A6969","udp%3A%2F%2Fexodus.desync.com%3A6969"],"infoHash":"d8c886cb5feae14ae555250fa1c88e40110087dc","infoHashBuffer":{"type":"Buffer","data":[216,200,134,203,95,234,225,74,229,85,37,15,161,200,142,64,17,0,135,220]},"announce":[],"urlList":[]}}